<?xml version="1.0" encoding="utf-8"?>
<!-- Generator: Adobe Illustrator 23.0.6, SVG Export Plug-In . SVG Version: 6.00 Build 0)  -->
<svg version="1.1" id="Layer_1" xmlns="http://www.w3.org/2000/svg" xmlns:xlink="http://www.w3.org/1999/xlink" x="0px" y="0px"
	 viewBox="0 0 205.32 205.32"  xml:space="preserve" style="enable-background:new 0 0 205.32 205.32;" >
<circle class="st0" cx="102.66" cy="102.66" r="102.66" style="fill:#f6f8fa;" />
<path class="st1" d="M67.84,29.42l70.34,0.33c4.18,0.02,7.55,3.42,7.53,7.61l-0.62,130.99c-0.02,4.18-3.42,7.55-7.61,7.53
	l-70.34-0.33c-4.18-0.02-7.55-3.42-7.53-7.61l0.62-130.99C60.26,32.77,63.66,29.4,67.84,29.42z" style="fill:#671C68;" />
<path class="st2" d="M74.39,39.55l57.15,0.27c2.1,0.01,3.79,1.72,3.78,3.82v0l-0.5,106c-0.01,1.99-1.63,3.59-3.62,3.58h0
	l-57.55-0.27c-1.99-0.01-3.59-1.63-3.58-3.62l0,0l0.5-106C70.58,41.23,72.29,39.54,74.39,39.55C74.39,39.55,74.39,39.55,74.39,39.55
	z" style="fill:#00BAB4;" />
<circle class="st3" cx="102.37" cy="164.12" r="6.27" style="fill:#FF5C7B;" />
<path class="st4" d="M110.27,133.14h1.21h7.51c0.93,0,1.69-0.76,1.7-1.69l0.29-52.7c0.01-0.56-0.27-1.09-0.73-1.4
	c-1.7-1.17-2.13-3.5-0.96-5.2c0.26-0.38,0.58-0.7,0.96-0.96c0.46-0.31,0.74-0.83,0.74-1.39l0.05-5.78c0-0.93-0.76-1.69-1.69-1.7
	h-8.06c-0.51,0-0.99,0.23-1.31,0.62c-3.98,3.92-10.38,3.89-14.31-0.08c-0.32-0.39-0.8-0.62-1.31-0.63H86.3
	c-0.93,0-1.69,0.76-1.7,1.69v5.82c-0.01,0.56,0.27,1.09,0.73,1.41c1.7,1.17,2.13,3.49,0.96,5.19c-0.26,0.38-0.59,0.7-0.96,0.96
	c-0.46,0.32-0.74,0.84-0.74,1.4l-0.3,52.7c0,0.93,0.76,1.69,1.69,1.7L110.27,133.14z" style="fill:#FFFFFF;" />
<line class="st5" x1="89.53" y1="81.87" x2="115.96" y2="82.02" style="fill:none;stroke:#C5C5C5;stroke-width:1.13;stroke-linecap:round;stroke-miterlimit:10;" />
<line class="st5" x1="89.51" y1="86.63" x2="102.72" y2="86.7" style="fill:none;stroke:#C5C5C5;stroke-width:1.13;stroke-linecap:round;stroke-miterlimit:10;" />
<line class="st5" x1="89.49" y1="90.45" x2="102.7" y2="90.53" style="fill:none;stroke:#C5C5C5;stroke-width:1.13;stroke-linecap:round;stroke-miterlimit:10;" />
<line class="st5" x1="89.46" y1="94.92" x2="115.89" y2="95.07" style="fill:none;stroke:#C5C5C5;stroke-width:1.13;stroke-linecap:round;stroke-miterlimit:10;" />
<line class="st5" x1="89.58" y1="74.36" x2="89.72" y2="74.36" style="fill:none;stroke:#C5C5C5;stroke-width:1.13;stroke-linecap:round;stroke-miterlimit:10;" />
<line class="st6" x1="92.72" y1="74.38" x2="114.36" y2="74.5" style="fill:none;stroke:#C5C5C5;stroke-width:1.13;stroke-linecap:round;stroke-miterlimit:10;stroke-dasharray:0.3,3;" />
<line class="st5" x1="115.86" y1="74.5" x2="116" y2="74.51" style="fill:none;stroke:#C5C5C5;stroke-width:1.13;stroke-linecap:round;stroke-miterlimit:10;" />
<path class="st7" d="M108.4,85.08l4.47,0.02c0.66,0,1.19,0.54,1.18,1.2l-0.02,4.47c0,0.66-0.54,1.19-1.2,1.18l-4.47-0.02
	c-0.66,0-1.19-0.54-1.18-1.2l0.02-4.47C107.21,85.6,107.74,85.07,108.4,85.08z" style="fill:#D7D7D7;" />
<line class="st8" x1="166.16" y1="51.26" x2="39.16" y2="51.26" style="fill:none;stroke:#FF5C7B;stroke-width:2;stroke-miterlimit:10;" />
<linearGradient id="SVGID_1_" gradientUnits="userSpaceOnUse" x1="102.66" y1="55.78" x2="102.66" y2="155.78" gradientTransform="matrix(1 0 0 -1 0 208.04)">
	<stop  offset="0.24" style="stop-color:#FF5C7B;stop-opacity:0;" />
	<stop  offset="0.34" style="stop-color:#FF5C7B;stop-opacity:0.02;" />
	<stop  offset="0.46" style="stop-color:#FF5C7B;stop-opacity:0.07;" />
	<stop  offset="0.58" style="stop-color:#FF5C7B;stop-opacity:0.16;" />
	<stop  offset="0.7" style="stop-color:#FF5C7B;stop-opacity:0.28;" />
	<stop  offset="0.83" style="stop-color:#FF5C7B;stop-opacity:0.44;" />
	<stop  offset="0.96" style="stop-color:#FF5C7B;stop-opacity:0.63;" />
	<stop  offset="1" style="stop-color:#FF5C7B;stop-opacity:0.7;" />
</linearGradient>
<rect x="39.16" y="52.26" class="st9" width="127" height="100" style="fill:url(#SVGID_1_);" />
<rect x="94.36" y="103.39" class="st4" width="17.72" height="17.72" style="fill:#FFFFFF;" />
<rect x="94.35" y="103.38" class="st10" width="3.91" height="3.73" style="fill:#AB3CBB;" />
<rect x="94.35" y="110.88" class="st10" width="3.91" height="3.73" style="fill:#AB3CBB;" />
<rect x="94.35" y="117.36" class="st10" width="7.63" height="3.73" style="fill:#AB3CBB;" />
<polygon class="st10" points="112.08,110.85 112.08,103.39 107.76,103.39 107.76,110.83 105.66,110.83 105.66,107.11 98.26,107.11 
	98.26,110.84 101.98,110.84 101.98,117.37 106.5,117.37 106.5,121.11 112.08,121.11 112.08,115.53 109.48,115.53 109.48,110.85 " style="fill:#AB3CBB;" />
</svg>
