<?xml version="1.0" encoding="utf-8"?>
<!-- Generator: Adobe Illustrator 23.0.6, SVG Export Plug-In . SVG Version: 6.00 Build 0)  -->
<svg version="1.1" id="Layer_1" xmlns="http://www.w3.org/2000/svg" xmlns:xlink="http://www.w3.org/1999/xlink" x="0px" y="0px"
	 viewBox="0 0 205.32 206.32"  xml:space="preserve" style="enable-background:new 0 0 205.32 206.32;" >
<circle class="st0" cx="102.66" cy="102.66" r="102.66" style="fill:#f6f8fa;" />
<circle class="st1" cx="104.66" cy="58.53" r="25.43" style="fill:#00BBB5;" />
<polyline class="st2" points="92.77,56.33 102.53,66.08 119.95,48.65 " style="fill:none;stroke:#FFFFFF;stroke-width:8.07;stroke-miterlimit:10;" />
<g>
	<defs>
		<circle id="SVGID_1_" cx="102.66" cy="103.66" r="102.66"/>
	</defs>
	<clipPath id="SVGID_2_">
		<use xlink:href="#SVGID_1_" style="overflow:visible;" />
	</clipPath>
	<g class="st3" style="clip-path:url(#SVGID_2_);" >
		<path class="st4" d="M99.95,229.52l2.1-0.57l13.06-3.5c1.61-0.4,2.59-2.03,2.18-3.64c-0.01-0.03-0.02-0.06-0.02-0.09l-24.56-91.67
			c-0.26-0.97-0.98-1.75-1.93-2.09c-3.5-1.23-5.34-5.07-4.1-8.57c0.28-0.78,0.69-1.51,1.23-2.14c0.65-0.76,0.89-1.8,0.63-2.77
			l-2.72-10.14c-0.4-1.61-2.04-2.58-3.64-2.18c-0.03,0.01-0.07,0.02-0.1,0.03l-14,3.75c-0.88,0.25-1.62,0.87-2,1.7
			c-1.77,3.79-5.82,7.08-11.06,8.48s-10.38,0.58-13.82-1.82c-0.75-0.53-1.69-0.7-2.57-0.47l-14,3.76c-1.61,0.4-2.59,2.03-2.19,3.63
			c0.01,0.04,0.02,0.07,0.03,0.11l2.69,10.19c0.28,0.94,1,1.69,1.93,2c3.51,1.25,5.34,5.1,4.09,8.61c-0.27,0.77-0.69,1.49-1.22,2.11
			c-0.65,0.76-0.89,1.8-0.63,2.77l24.56,91.71c0.44,1.63,2.11,2.59,3.74,2.16L99.95,229.52z" style="fill:#AB3CBB;" />
		<circle class="st5" cx="77.29" cy="199.3" r="20.4" style="fill:#FDDC00;" />
		<path class="st6" d="M74.56,205.2l8.05-2.16c0.38-0.1,0.77,0.12,0.87,0.5l0,0l0,0c0.7,2.6-0.85,5.28-3.45,5.98l0,0l0,0
			c-2.6,0.7-5.28-0.85-5.98-3.45l0,0l0,0C73.95,205.69,74.17,205.3,74.56,205.2L74.56,205.2L74.56,205.2z" style="fill:#FF5C7B;" />
		<circle class="st4" cx="83.74" cy="196.66" r="2.53" style="fill:#AB3CBB;" />
		<circle class="st4" cx="70.39" cy="200.23" r="2.53" style="fill:#AB3CBB;" />
		<polygon class="st6" points="74.88,192.31 76.65,198.88 74.61,199.43 75.42,202.45 80.49,201.09 79.7,198.13 79.7,198.13 
			77.92,191.5 		" style="fill:#FF5C7B;" />
		<line class="st7" x1="39.95" y1="151.85" x2="85.91" y2="139.53" style="fill:none;stroke:#671C68;stroke-width:2.04;stroke-linecap:round;stroke-miterlimit:10;" />
		<line class="st7" x1="41.77" y1="158.63" x2="64.75" y2="152.48" style="fill:none;stroke:#671C68;stroke-width:2.04;stroke-linecap:round;stroke-miterlimit:10;" />
		<line class="st7" x1="43.55" y1="165.29" x2="66.53" y2="159.14" style="fill:none;stroke:#671C68;stroke-width:2.04;stroke-linecap:round;stroke-miterlimit:10;" />
		<line class="st7" x1="45.63" y1="173.06" x2="91.6" y2="160.75" style="fill:none;stroke:#671C68;stroke-width:2.04;stroke-linecap:round;stroke-miterlimit:10;" />
		<line class="st7" x1="36.05" y1="137.3" x2="36.3" y2="137.23" style="fill:none;stroke:#671C68;stroke-width:2.04;stroke-linecap:round;stroke-miterlimit:10;" />
		<line class="st8" x1="41.52" y1="135.83" x2="79.15" y2="125.75" style="fill:none;stroke:#671C68;stroke-width:2.04;stroke-linecap:round;stroke-miterlimit:10;stroke-dasharray:0.54,5.41;" />
		<line class="st7" x1="81.77" y1="125.05" x2="82.01" y2="124.98" style="fill:none;stroke:#671C68;stroke-width:2.04;stroke-linecap:round;stroke-miterlimit:10;" />
		<path class="st9" d="M73.84,146.96l7.77-2.08c1.15-0.31,2.33,0.37,2.63,1.52l2.08,7.77c0.31,1.15-0.37,2.33-1.52,2.63l-7.77,2.08
			c-1.15,0.31-2.33-0.37-2.63-1.52l-2.08-7.77C72.02,148.45,72.7,147.27,73.84,146.96z" style="fill:#671C68;" />
		<path class="st6" d="M136.04,236.81l2.11,0.57l13.06,3.5c1.63,0.43,3.3-0.53,3.74-2.16l24.56-91.67c0.26-0.97,0.02-2.01-0.63-2.77
			c-2.43-2.82-2.1-7.08,0.72-9.5c0.64-0.55,1.38-0.98,2.18-1.26c0.96-0.32,1.68-1.1,1.94-2.08l2.71-10.13
			c0.46-1.59-0.46-3.25-2.05-3.71c-0.03-0.01-0.07-0.02-0.11-0.03l-14-3.76c-0.88-0.23-1.82-0.06-2.57,0.47
			c-3.43,2.4-8.58,3.23-13.82,1.82s-9.28-4.69-11.06-8.48c-0.38-0.83-1.12-1.45-2-1.7l-14-3.75c-1.63-0.44-3.3,0.52-3.74,2.15
			c0,0,0,0,0,0l-2.75,10.2c-0.27,0.97-0.03,2.01,0.64,2.77c2.41,2.83,2.07,7.08-0.75,9.49c-0.63,0.53-1.34,0.95-2.12,1.22
			c-0.95,0.34-1.67,1.12-1.94,2.09L91.6,221.76c-0.45,1.59,0.47,3.25,2.07,3.71c0.03,0.01,0.06,0.02,0.09,0.02L136.04,236.81z" style="fill:#FF5C7B;" />
		<circle class="st5" cx="131.58" cy="199.3" r="20.4" style="fill:#FDDC00;" />
		<path class="st6" d="M126.27,203.04l8.05,2.16c0.38,0.1,0.6,0.49,0.5,0.87v0l0,0c-0.7,2.6-3.37,4.15-5.98,3.45c0,0,0,0,0,0l0,0
			c-2.6-0.7-4.15-3.37-3.45-5.98c0,0,0,0,0,0l0,0C125.49,203.16,125.88,202.93,126.27,203.04L126.27,203.04L126.27,203.04z" style="fill:#FF5C7B;" />
		<circle class="st4" cx="138.48" cy="200.23" r="2.53" style="fill:#AB3CBB;" />
		<circle class="st4" cx="125.14" cy="196.66" r="2.53" style="fill:#AB3CBB;" />
		<polygon class="st6" points="132.99,192.04 131.22,198.61 129.19,198.07 128.38,201.09 133.45,202.45 134.24,199.49 
			134.24,199.49 136.02,192.85 		" style="fill:#FF5C7B;" />
		<line class="st7" x1="122.96" y1="139.53" x2="168.92" y2="151.85" style="fill:none;stroke:#671C68;stroke-width:2.04;stroke-linecap:round;stroke-miterlimit:10;" />
		<line class="st7" x1="121.14" y1="146.32" x2="144.12" y2="152.48" style="fill:none;stroke:#671C68;stroke-width:2.04;stroke-linecap:round;stroke-miterlimit:10;" />
		<line class="st7" x1="119.36" y1="152.98" x2="142.34" y2="159.14" style="fill:none;stroke:#671C68;stroke-width:2.04;stroke-linecap:round;stroke-miterlimit:10;" />
		<line class="st7" x1="117.28" y1="160.75" x2="163.24" y2="173.06" style="fill:none;stroke:#671C68;stroke-width:2.04;stroke-linecap:round;stroke-miterlimit:10;" />
		<line class="st7" x1="126.86" y1="124.98" x2="127.11" y2="125.05" style="fill:none;stroke:#671C68;stroke-width:2.04;stroke-linecap:round;stroke-miterlimit:10;" />
		<line class="st8" x1="132.33" y1="126.45" x2="169.96" y2="136.53" style="fill:none;stroke:#671C68;stroke-width:2.04;stroke-linecap:round;stroke-miterlimit:10;stroke-dasharray:0.54,5.41;" />
		<line class="st7" x1="172.58" y1="137.23" x2="172.82" y2="137.3" style="fill:none;stroke:#671C68;stroke-width:2.04;stroke-linecap:round;stroke-miterlimit:10;" />
		<path class="st9" d="M154.76,152.25l7.77,2.08c1.15,0.31,1.83,1.49,1.52,2.63l-2.08,7.77c-0.31,1.15-1.49,1.83-2.63,1.52
			l-7.77-2.08c-1.15-0.31-1.83-1.49-1.52-2.63l2.08-7.77C152.44,152.62,153.62,151.94,154.76,152.25z" style="fill:#671C68;" />
		<path class="st1" d="M118.93,244.52h15.7c1.67,0.01,3.03-1.33,3.06-3v-95c0-1.01-0.5-1.95-1.33-2.52
			c-3.06-2.1-3.85-6.28-1.75-9.34c0.47-0.69,1.06-1.28,1.75-1.75c0.83-0.57,1.33-1.51,1.33-2.51v-10.48c0-1.69-1.37-3.06-3.06-3.06
			h-14.51c-0.92,0-1.78,0.42-2.36,1.13c-2.7,3.2-7.46,5.33-12.88,5.33S94.7,121.19,92,117.99c-0.58-0.71-1.45-1.13-2.37-1.13H75.12
			c-1.67,0.03-3,1.39-3,3.06v10.49c0,1,0.5,1.94,1.33,2.51c3.06,2.12,3.83,6.31,1.71,9.38c-0.46,0.67-1.04,1.25-1.71,1.71
			c-0.86,0.55-1.39,1.49-1.41,2.51v94.9c0,1.66,1.34,3,3,3L118.93,244.52z" style="fill:#00BBB5;" />
		
			<ellipse transform="matrix(0.0985 -0.9951 0.9951 0.0985 -113.8455 293.1448)" class="st5" cx="104.88" cy="209.41" rx="20.4" ry="20.4" style="fill:#FDDC00;" />
		<path class="st6" d="M100.71,214.39h8.33c0.39,0,0.71,0.32,0.71,0.71v0l0,0c0,2.7-2.18,4.88-4.88,4.88c0,0,0,0,0,0l0,0
			c-2.7,0-4.88-2.18-4.88-4.88c0,0,0,0,0,0l0,0c0-0.39,0.32-0.71,0.71-0.71H100.71L100.71,214.39z" style="fill:#FF5C7B;" />
		<circle class="st4" cx="111.78" cy="208.53" r="2.53" style="fill:#AB3CBB;" />
		<circle class="st4" cx="97.97" cy="208.53" r="2.53" style="fill:#AB3CBB;" />
		<polygon class="st6" points="104.36,202.03 104.36,208.84 102.26,208.84 102.26,211.97 107.5,211.97 107.5,208.9 107.5,208.9 
			107.5,202.03 		" style="fill:#FF5C7B;" />
		<line class="st7" x1="81.09" y1="153.91" x2="128.67" y2="153.91" style="fill:none;stroke:#671C68;stroke-width:2.04;stroke-linecap:round;stroke-miterlimit:10;" />
		<line class="st7" x1="81.09" y1="160.94" x2="104.88" y2="160.94" style="fill:none;stroke:#671C68;stroke-width:2.04;stroke-linecap:round;stroke-miterlimit:10;" />
		<line class="st7" x1="81.09" y1="167.83" x2="104.88" y2="167.83" style="fill:none;stroke:#671C68;stroke-width:2.04;stroke-linecap:round;stroke-miterlimit:10;" />
		<line class="st7" x1="81.09" y1="175.87" x2="128.67" y2="175.87" style="fill:none;stroke:#671C68;stroke-width:2.04;stroke-linecap:round;stroke-miterlimit:10;" />
		<line class="st7" x1="81.09" y1="138.85" x2="81.34" y2="138.85" style="fill:none;stroke:#671C68;stroke-width:2.04;stroke-linecap:round;stroke-miterlimit:10;" />
		<line class="st8" x1="86.75" y1="138.85" x2="125.71" y2="138.85" style="fill:none;stroke:#671C68;stroke-width:2.04;stroke-linecap:round;stroke-miterlimit:10;stroke-dasharray:0.54,5.41;" />
		<line class="st7" x1="128.41" y1="138.85" x2="128.67" y2="138.85" style="fill:none;stroke:#671C68;stroke-width:2.04;stroke-linecap:round;stroke-miterlimit:10;" />
		<path class="st9" d="M115.09,157.96h8.04c1.19,0,2.15,0.96,2.15,2.15v8.04c0,1.19-0.96,2.15-2.15,2.15h-8.04
			c-1.19,0-2.15-0.96-2.15-2.15v-8.04C112.94,158.92,113.9,157.96,115.09,157.96z" style="fill:#671C68;" />
	</g>
</g>
</svg>
