<svg xmlns="http://www.w3.org/2000/svg" class="w-6 h-6" fill="currentColor" viewBox="0 0 24 24">
      <path d="M23.954 4.569c-.885.392-1.83.656-2.825.775 1.014-.608 1.794-1.569 2.163-2.724-.951.56-2.005.97-3.127 1.19-.897-.955-2.173-1.554-3.59-1.554-2.717 0-4.924 2.207-4.924 4.924 0 .39.043.765.126 1.124C7.69 8.094 4.066 6.13 1.64 3.161c-.427.722-.666 1.561-.666 2.475 0 1.71.87 3.213 2.188 4.096-.807-.026-1.566-.247-2.228-.616v.062c0 2.385 1.693 4.374 3.946 4.829-.413.112-.848.171-1.296.171-.316 0-.624-.03-.927-.086.624 1.951 2.444 3.376 4.6 3.415-1.68 1.319-3.809 2.105-6.102 2.105-.396 0-.788-.023-1.175-.067 2.179 1.396 4.768 2.21 7.548 2.21 9.051 0 13.998-7.497 13.998-13.986 0-.213-.004-.425-.014-.636.961-.695 1.797-1.562 2.457-2.549z"/>
    </svg>